<svg width="293" height="293" viewBox="0 0 293 293" fill="none" xmlns="http://www.w3.org/2000/svg">
<path d="M281.255 178.455C279.814 178.253 278.734 177.648 278.017 176.641C277.309 175.635 276.933 174.369 276.889 172.844L276.787 172.83C276.293 174.536 275.548 175.782 274.551 176.57C273.554 177.357 272.35 177.652 270.938 177.454C269.69 177.28 268.636 176.812 267.776 176.05C266.924 175.3 266.324 174.264 265.975 172.944C265.626 171.623 265.581 170.034 265.84 168.177C266 167.026 266.245 165.941 266.574 164.922C266.893 163.902 267.321 162.985 267.858 162.173L270.136 162.492C269.762 163.051 269.421 163.664 269.111 164.33C268.801 164.997 268.539 165.68 268.323 166.38C268.116 167.09 267.966 167.774 267.875 168.432C267.608 170.347 267.774 171.849 268.372 172.939C268.978 174.039 269.953 174.684 271.297 174.872C272.68 175.065 273.766 174.631 274.555 173.568C275.352 172.516 275.895 170.955 276.183 168.885L276.607 165.838L278.681 166.128L278.271 169.074C278.077 170.467 278.076 171.645 278.267 172.608C278.468 173.573 278.832 174.324 279.359 174.861C279.894 175.41 280.568 175.741 281.38 175.854C282.492 176.01 283.405 175.724 284.117 174.995C284.829 174.276 285.275 173.269 285.455 171.973C285.642 170.628 285.623 169.491 285.397 168.562C285.181 167.635 284.86 166.717 284.434 165.81L286.283 164.855C286.611 165.473 286.89 166.163 287.119 166.925C287.358 167.688 287.513 168.518 287.586 169.416C287.667 170.315 287.638 171.267 287.498 172.273C287.29 173.773 286.887 175.003 286.29 175.965C285.702 176.928 284.975 177.62 284.108 178.041C283.241 178.462 282.29 178.6 281.255 178.455Z" fill="white"/>
<path d="M276.78 191.035C276.253 192.875 275.449 194.122 274.368 194.776C273.286 195.43 271.84 195.496 270.029 194.974L259.543 191.952L260.031 190.248L262.44 190.455L262.473 190.342C262.033 189.748 261.689 189.161 261.438 188.58C261.197 188.003 261.067 187.376 261.048 186.7C261.035 186.035 261.156 185.257 261.412 184.365C261.681 183.427 262.084 182.638 262.623 182.001C263.158 181.372 263.82 180.943 264.607 180.713C265.391 180.492 266.295 180.528 267.318 180.823C268.857 181.267 269.864 182.218 270.341 183.676C270.817 185.134 270.734 187.123 270.094 189.642L269.444 192.336L270.387 192.607C271.72 192.991 272.735 192.974 273.434 192.556C274.133 192.137 274.632 191.407 274.931 190.365C275.162 189.557 275.265 188.754 275.24 187.954C275.216 187.154 275.138 186.38 275.007 185.63L276.986 185.423C277.144 186.221 277.22 187.107 277.215 188.081C277.211 189.055 277.066 190.04 276.78 191.035ZM267.805 191.833L268.381 189.453C268.857 187.507 268.931 186.06 268.604 185.111C268.276 184.163 267.605 183.543 266.592 183.251C265.71 182.997 264.981 183.077 264.405 183.49C263.83 183.903 263.416 184.551 263.163 185.434C262.77 186.805 262.829 188.036 263.339 189.128C263.848 190.22 264.864 190.985 266.384 191.423L267.805 191.833Z" fill="white"/>
<path d="M265.2 216.556L250.589 209.902L251.598 207.674L264.303 213.459L267.832 205.666L255.127 199.881L256.136 197.652L270.747 204.306L265.2 216.556Z" fill="white"/>
<path d="M245.501 230.616C244.4 229.891 243.511 229.1 242.834 228.245C242.157 227.389 241.697 226.496 241.455 225.565C241.213 224.633 241.185 223.679 241.37 222.701C241.558 221.738 241.967 220.774 242.599 219.81C243.188 218.911 243.883 218.188 244.685 217.641C245.49 217.107 246.37 216.763 247.324 216.608C248.272 216.461 249.278 216.521 250.34 216.789C251.397 217.064 252.476 217.565 253.577 218.29C255.045 219.257 256.129 220.329 256.83 221.504C257.539 222.685 257.86 223.914 257.794 225.191C257.73 226.483 257.278 227.769 256.438 229.052C255.635 230.277 254.661 231.167 253.515 231.722C252.364 232.285 251.105 232.479 249.737 232.303C248.372 232.14 246.96 231.578 245.501 230.616ZM252.196 220.397C251.12 219.688 250.092 219.216 249.114 218.981C248.136 218.745 247.235 218.783 246.412 219.095C245.589 219.406 244.87 220.032 244.255 220.971C243.645 221.902 243.36 222.809 243.402 223.69C243.438 224.579 243.758 225.427 244.361 226.234C244.965 227.041 245.805 227.8 246.882 228.509C247.95 229.213 248.965 229.677 249.927 229.902C250.897 230.132 251.789 230.088 252.604 229.771C253.419 229.454 254.137 228.822 254.757 227.875C255.673 226.478 255.884 225.149 255.39 223.888C254.892 222.636 253.827 221.472 252.196 220.397Z" fill="white"/>
<path d="M226.579 238.261L228.229 236.416L238.653 245.788L241.904 242.152C240.154 240.315 238.707 238.68 237.566 237.246C236.425 235.826 235.579 234.567 235.029 233.468C234.479 232.383 234.216 231.425 234.24 230.592C234.265 229.774 234.566 229.04 235.146 228.392C235.321 228.196 235.498 228.02 235.676 227.865C235.854 227.71 236.024 227.593 236.185 227.515L237.558 228.749C237.444 228.818 237.335 228.896 237.229 228.985C237.117 229.081 237.009 229.188 236.905 229.304C236.612 229.632 236.479 230.051 236.507 230.562C236.536 231.087 236.728 231.707 237.085 232.421C237.435 233.143 237.953 233.97 238.639 234.902C239.333 235.841 240.195 236.892 241.225 238.054C242.256 239.231 243.456 240.526 244.824 241.94L238.518 248.995L226.579 238.261Z" fill="white"/>
<path d="M230.084 255.288L225.742 250.136L218.915 255.923L223.257 261.076L221.403 262.648L211.055 250.373L212.91 248.8L217.583 254.344L224.41 248.556L219.737 243.012L221.603 241.43L231.95 253.706L230.084 255.288Z" fill="white"/>
<path d="M211.72 267.523L206.502 258.884C206.401 258.717 206.274 258.497 206.121 258.224C205.973 257.96 205.816 257.672 205.651 257.361C205.491 257.058 205.336 256.764 205.186 256.478C205.033 256.206 204.912 255.976 204.822 255.791L204.371 271.987L201.817 273.539L193.517 259.796L195.458 258.617L200.547 267.043C200.708 267.311 200.911 267.656 201.155 268.079C201.399 268.502 201.634 268.919 201.86 269.331C202.091 269.751 202.27 270.076 202.398 270.307L202.831 254.138L205.398 252.579L213.698 266.321L211.72 267.523Z" fill="white"/>
<path d="M182.874 278.151L187.765 276.141L182.474 263.191L184.696 262.278L189.987 275.228L194.811 273.246L195.592 275.157L183.656 280.063L182.874 278.151Z" fill="white"/>
<path d="M173.386 275.365L168.642 276.674C167.324 277.037 166.182 277.175 165.216 277.087C164.25 276.999 163.461 276.69 162.85 276.159C162.229 275.631 161.787 274.887 161.524 273.927C161.26 272.966 161.248 272.073 161.488 271.247C161.717 270.424 162.227 269.696 163.015 269.063C163.794 268.433 164.885 267.924 166.288 267.537L173.249 265.617L177.496 281.1L175.138 281.75L173.386 275.365ZM163.851 273.163C164.112 274.114 164.632 274.68 165.41 274.86C166.182 275.053 167.17 274.983 168.375 274.65L172.852 273.415L171.414 268.174L166.924 269.413C165.794 269.725 164.933 270.185 164.341 270.794C163.751 271.413 163.588 272.202 163.851 273.163Z" fill="white"/>
<path d="M147.2 278.906C147.306 281.188 147.176 283.145 146.812 284.775C146.448 286.415 145.83 287.743 144.958 288.762C144.077 289.79 142.917 290.518 141.481 290.947C140.248 291.346 138.993 291.698 137.717 292.002C136.441 292.315 135.197 292.593 133.987 292.835L133.464 290.718C134.074 290.602 134.713 290.47 135.381 290.321C136.049 290.183 136.717 290.034 137.384 289.876C138.052 289.728 138.68 289.571 139.269 289.407C139.858 289.253 140.378 289.097 140.831 288.939C141.649 288.676 142.348 288.252 142.928 287.668C143.497 287.084 143.935 286.297 144.241 285.305C144.537 284.313 144.685 283.075 144.685 281.589L144.509 281.597C144.237 282.04 143.856 282.483 143.368 282.926C142.88 283.369 142.292 283.743 141.602 284.049C140.913 284.365 140.129 284.543 139.251 284.584C137.866 284.648 136.696 284.399 135.741 283.837C134.787 283.285 134.051 282.479 133.532 281.418C133.014 280.357 132.721 279.1 132.654 277.646C132.573 275.9 132.808 274.418 133.358 273.199C133.898 271.982 134.695 271.045 135.75 270.39C136.806 269.745 138.065 269.388 139.528 269.32C140.66 269.267 141.684 269.44 142.602 269.837C143.51 270.235 144.296 270.843 144.959 271.663C145.613 272.483 146.134 273.5 146.523 274.714C146.902 275.928 147.127 277.325 147.2 278.906ZM139.431 271.348C138.505 271.391 137.718 271.623 137.073 272.044C136.418 272.466 135.929 273.104 135.607 273.96C135.276 274.826 135.141 275.937 135.204 277.293C135.283 278.99 135.671 280.302 136.368 281.227C137.057 282.163 138.113 282.598 139.537 282.532C140.425 282.491 141.221 282.263 141.925 281.849C142.63 281.445 143.219 280.973 143.693 280.432C144.167 279.892 144.506 279.412 144.712 278.992C144.666 277.997 144.548 277.035 144.358 276.105C144.169 275.175 143.876 274.343 143.48 273.609C143.085 272.874 142.56 272.302 141.905 271.893C141.241 271.484 140.417 271.302 139.431 271.348Z" fill="white"/>
<path d="M117.518 283.822C115.527 283.614 114.01 282.763 112.968 281.269C111.926 279.775 111.548 277.654 111.834 274.905C112.024 273.089 112.454 271.592 113.127 270.416C113.799 269.239 114.664 268.387 115.72 267.86C116.767 267.331 117.96 267.137 119.301 267.277C120.146 267.366 120.877 267.556 121.495 267.846C122.112 268.137 122.63 268.495 123.047 268.922C123.464 269.349 123.8 269.801 124.054 270.279L124.229 270.298C124.239 269.916 124.253 269.456 124.27 268.917C124.277 268.378 124.301 267.909 124.343 267.511L125.026 260.955L127.459 261.21L125.051 284.317L123.055 284.108L122.981 281.714L122.864 281.702C122.503 282.155 122.078 282.557 121.59 282.909C121.101 283.27 120.523 283.533 119.858 283.699C119.182 283.874 118.402 283.915 117.518 283.822ZM118.153 281.827C119.26 281.943 120.176 281.823 120.901 281.467C121.615 281.11 122.172 280.52 122.572 279.698C122.971 278.885 123.247 277.839 123.4 276.559L123.449 276.093C123.589 274.743 123.562 273.586 123.368 272.623C123.164 271.659 122.748 270.899 122.118 270.342C121.479 269.784 120.582 269.444 119.426 269.323C118.436 269.219 117.582 269.4 116.866 269.865C116.15 270.33 115.582 271.022 115.162 271.94C114.732 272.867 114.452 273.952 114.323 275.195C114.126 277.08 114.339 278.614 114.962 279.799C115.574 280.992 116.638 281.668 118.153 281.827Z" fill="white"/>
<path d="M102.141 279.571L104.663 269.799C104.712 269.609 104.78 269.365 104.867 269.065C104.952 268.774 105.048 268.461 105.155 268.125C105.259 267.799 105.361 267.483 105.461 267.176C105.548 266.876 105.627 266.629 105.697 266.435L93.818 277.411L90.9255 276.66L94.9373 261.115L97.1349 261.685L94.6752 271.217C94.5971 271.519 94.4923 271.906 94.3609 272.376C94.2294 272.846 94.0957 273.306 93.9596 273.755C93.8211 274.214 93.7142 274.569 93.6389 274.822L105.486 263.853L108.393 264.607L104.381 280.153L102.141 279.571Z" fill="white"/>
<path d="M72.4021 274.954L74.9964 268.99C73.5925 268.227 72.4876 267.29 71.6816 266.181C70.8717 265.08 70.4027 263.857 70.2746 262.511C70.1465 261.166 70.4077 259.745 71.0582 258.249C71.697 256.781 72.5448 255.627 73.6016 254.789C74.6494 253.947 75.8529 253.445 77.212 253.283C78.5622 253.117 80.0206 253.302 81.5871 253.838L84.3684 247.444L86.5425 248.395L83.7612 254.789C85.1728 255.535 86.2836 256.458 87.0935 257.558C87.8906 258.664 88.3512 259.894 88.4754 261.248C88.5997 262.603 88.3365 264.028 87.686 265.524C87.0355 267.019 86.1883 268.184 85.1443 269.017C84.0876 269.855 82.8816 270.35 81.5263 270.504C80.1672 270.666 78.6929 270.469 77.1033 269.912L74.5091 275.876L72.4021 274.954ZM77.9097 268.058C79.0888 268.457 80.1484 268.579 81.0885 268.425C82.0286 268.272 82.8548 267.866 83.5671 267.207C84.2705 266.545 84.8696 265.645 85.3643 264.508C85.859 263.371 86.1066 262.312 86.1071 261.332C86.1037 260.36 85.8384 259.476 85.3112 258.681C84.784 257.885 83.9801 257.187 82.8995 256.587L77.9097 268.058ZM75.8144 267.109L80.7925 255.665C79.6146 255.288 78.5581 255.183 77.623 255.349C76.679 255.512 75.8553 255.925 75.1519 256.587C74.4396 257.245 73.84 258.134 73.3531 259.253C72.613 260.955 72.4416 262.463 72.839 263.777C73.2324 265.101 74.2242 266.211 75.8144 267.109Z" fill="white"/>
<path d="M44.2244 247.126C45.1043 245.967 46.1582 245.322 47.386 245.19C48.6079 245.067 49.8933 245.36 51.242 246.071L51.3041 245.989C50.0605 244.72 49.3398 243.457 49.1417 242.2C48.9436 240.942 49.2756 239.746 50.1378 238.611C50.8996 237.607 51.8221 236.917 52.9054 236.54C53.9749 236.165 55.1698 236.15 56.4899 236.494C57.81 236.839 59.2151 237.58 60.7053 238.718C61.6289 239.423 62.4537 240.17 63.1798 240.958C63.9117 241.738 64.4999 242.562 64.9445 243.43L63.5538 245.262C63.2498 244.661 62.8833 244.061 62.4544 243.464C62.0255 242.866 61.5593 242.301 61.0558 241.769C60.5387 241.239 60.0162 240.772 59.4885 240.369C57.9517 239.196 56.5631 238.602 55.3226 238.589C54.0685 238.577 53.031 239.112 52.2101 240.193C51.3656 241.305 51.2133 242.467 51.753 243.678C52.2791 244.89 53.3726 246.131 55.0336 247.399L57.4784 249.266L56.2117 250.935L53.8483 249.13C52.7307 248.276 51.7058 247.696 50.7736 247.39C49.8355 247.091 49.0039 247.04 48.2789 247.236C47.5402 247.434 46.9228 247.859 46.4268 248.513C45.7476 249.407 45.551 250.344 45.8368 251.324C46.1149 252.298 46.7739 253.183 47.8139 253.977C48.8928 254.801 49.8916 255.342 50.8105 255.602C51.7235 255.869 52.6791 256.039 53.6772 256.114L53.6043 258.196C52.9062 258.179 52.1695 258.083 51.3944 257.909C50.6133 257.743 49.8145 257.471 48.9979 257.093C48.1753 256.723 47.3605 256.229 46.5533 255.613C45.3503 254.694 44.4762 253.738 43.9311 252.744C43.38 251.758 43.1332 250.783 43.1905 249.82C43.2479 248.856 43.5925 247.958 44.2244 247.126Z" fill="white"/>
<path d="M35.4418 236.961C34.1001 235.596 33.4098 234.28 33.3707 233.014C33.3317 231.749 33.9824 230.453 35.3228 229.128L43.0844 221.457L44.3268 222.721L42.9676 224.723L43.0497 224.807C43.7813 224.715 44.4606 224.703 45.0876 224.77C45.7077 224.844 46.3166 225.038 46.9142 225.354C47.498 225.669 48.1151 226.158 48.7654 226.819C49.4499 227.516 49.9375 228.256 50.2283 229.039C50.5123 229.816 50.5617 230.605 50.3766 231.406C50.1847 232.2 49.7102 232.971 48.9531 233.719C47.8141 234.845 46.494 235.257 44.9929 234.956C43.4919 234.654 41.8032 233.605 39.9269 231.807L37.903 229.915L37.205 230.605C36.2187 231.579 35.7364 232.475 35.758 233.291C35.7797 234.107 36.1704 234.902 36.9302 235.675C37.5189 236.274 38.167 236.759 38.8745 237.131C39.5821 237.503 40.2935 237.816 41.0088 238.07L40.2197 239.9C39.4493 239.646 38.6417 239.277 37.7971 238.793C36.9524 238.31 36.1673 237.699 35.4418 236.961ZM39.1424 228.731L40.93 230.403C42.3888 231.776 43.6106 232.553 44.5954 232.733C45.5801 232.913 46.4476 232.632 47.1977 231.891C47.8506 231.246 48.1382 230.57 48.0606 229.864C47.9829 229.158 47.6224 228.478 46.979 227.823C45.9796 226.806 44.8804 226.252 43.6812 226.16C42.482 226.068 41.3199 226.579 40.1947 227.691L39.1424 228.731Z" fill="white"/>
<path d="M19.0946 214.659L31.9953 205.102L33.446 207.072L22.2285 215.381L27.3018 222.269L38.5192 213.96L39.97 215.93L27.0693 225.486L19.0946 214.659Z" fill="white"/>
<path d="M16.4653 190.628C17.6328 190.016 18.7539 189.621 19.8286 189.443C20.9034 189.265 21.9054 189.296 22.8348 189.536C23.7642 189.777 24.6097 190.215 25.3715 190.852C26.1201 191.485 26.7609 192.313 27.2938 193.334C27.7905 194.287 28.0823 195.248 28.1692 196.217C28.2428 197.181 28.1153 198.119 27.7866 199.031C27.4533 199.933 26.9119 200.785 26.1623 201.587C25.4082 202.379 24.4474 203.082 23.2799 203.694C21.7233 204.511 20.2624 204.941 18.8972 204.984C17.5235 205.032 16.296 204.716 15.215 204.037C14.1207 203.354 13.2191 202.333 12.5101 200.973C11.8327 199.675 11.5308 198.388 11.6044 197.115C11.6735 195.832 12.1173 194.635 12.9356 193.522C13.7407 192.405 14.9173 191.44 16.4653 190.628ZM22.1148 201.46C23.2563 200.861 24.1675 200.19 24.8483 199.447C25.5291 198.704 25.9338 197.896 26.0625 197.024C26.1912 196.151 25.9959 195.217 25.4765 194.221C24.9617 193.234 24.3103 192.545 23.5223 192.153C22.7297 191.753 21.835 191.621 20.8381 191.758C19.8412 191.895 18.7719 192.263 17.6304 192.862C16.4975 193.456 15.5993 194.12 14.9358 194.854C14.2637 195.593 13.8676 196.396 13.7475 197.264C13.6275 198.132 13.8294 199.068 14.3533 200.073C15.1255 201.553 16.1809 202.384 17.5194 202.564C18.8534 202.735 20.3852 202.367 22.1148 201.46Z" fill="white"/>
<path d="M19.09 170.493L19.8963 172.833L6.65037 177.423L8.23921 182.035C10.6927 181.391 12.8223 180.917 14.628 180.612C16.4213 180.3 17.9309 180.17 19.1568 180.221C20.3703 180.265 21.3342 180.5 22.0485 180.924C22.7503 181.342 23.2428 181.962 23.5259 182.784C23.6118 183.033 23.6791 183.274 23.7277 183.505C23.7764 183.736 23.7954 183.941 23.7849 184.121L22.0409 184.725C22.0365 184.592 22.0212 184.458 21.9952 184.322C21.9659 184.177 21.9258 184.031 21.8749 183.883C21.7318 183.468 21.4307 183.148 20.9716 182.925C20.5001 182.696 19.8659 182.564 19.0692 182.53C18.2693 182.487 17.296 182.54 16.1493 182.689C14.9934 182.842 13.6578 183.087 12.1426 183.426C10.615 183.759 8.9016 184.182 7.00236 184.696L3.92011 175.749L19.09 170.493Z" fill="white"/>
<path d="M2.55707 165.08L9.17536 163.814L7.5031 155.022L0.884812 156.288L0.430482 153.899L16.1993 150.882L16.6536 153.271L9.53175 154.634L11.204 163.426L18.3259 162.064L18.7829 164.467L3.01414 167.483L2.55707 165.08Z" fill="white"/>
<path d="M0.906297 143.4L10.9929 143.048C11.1881 143.041 11.4421 143.037 11.7547 143.036C12.0576 143.036 12.3851 143.039 12.7371 143.046C13.0793 143.054 13.4119 143.062 13.7346 143.07C14.0473 143.069 14.3064 143.074 14.512 143.087L0.608537 134.806L0.505056 131.82L16.55 131.261L16.6286 133.53L6.79085 133.873C6.47854 133.884 6.07822 133.893 5.5899 133.9C5.10158 133.907 4.62284 133.909 4.1537 133.906C3.6748 133.903 3.30343 133.901 3.03958 133.901L16.9274 142.153L17.0314 145.154L0.986444 145.713L0.906297 143.4Z" fill="white"/>
<path d="M5.89693 111.939L5.22821 117.184L19.1039 118.964L18.8001 121.347L4.92441 119.568L4.26495 124.74L2.21629 124.478L3.84827 111.676L5.89693 111.939Z" fill="white"/>
<path d="M12.8524 105.438L14.0461 100.663C14.3777 99.3369 14.8194 98.2749 15.3711 97.4771C15.9229 96.6794 16.58 96.1448 17.3424 95.8733C18.1072 95.5923 18.9726 95.5733 19.9387 95.8162C20.9047 96.0591 21.6884 96.4877 22.2897 97.1021C22.8935 97.707 23.277 98.5083 23.4403 99.506C23.6059 100.494 23.5123 101.694 23.1594 103.106L21.4079 110.112L5.83787 106.197L6.43118 103.824L12.8524 105.438ZM19.459 98.218C18.5024 97.9775 17.7542 98.1519 17.2143 98.7411C16.6673 99.3185 16.2422 100.214 15.9391 101.426L14.8129 105.931L20.0834 107.256L21.2132 102.737C21.4974 101.6 21.5199 100.624 21.2809 99.8089C21.0323 98.9912 20.425 98.4609 19.459 98.218Z" fill="white"/>
<path d="M22.5292 80.8457C20.4901 79.8144 18.8503 78.7387 17.6098 77.6189C16.3607 76.4946 15.5066 75.3021 15.0476 74.0412C14.5842 72.7672 14.5182 71.3987 14.8495 69.9356C15.1061 68.6646 15.415 67.3982 15.7763 66.1364C16.1289 64.8701 16.4966 63.6499 16.8794 62.4756L18.9787 63.0613C18.7808 63.6506 18.5827 64.2727 18.3845 64.9276C18.1777 65.5781 17.9795 66.233 17.7901 66.8923C17.5919 67.5471 17.42 68.1715 17.2744 68.7654C17.12 69.3549 17.0007 69.8856 16.9165 70.3573C16.744 71.2003 16.7701 72.0178 16.9948 72.81C17.2239 73.5934 17.6952 74.3626 18.4087 75.1174C19.1266 75.8635 20.1324 76.6021 21.4263 77.3331L21.5053 77.1761C21.2535 76.7204 21.0543 76.171 20.9077 75.5278C20.7611 74.8846 20.7238 74.1872 20.7957 73.4356C20.8589 72.6796 21.0879 71.909 21.4828 71.1238C22.1058 69.8849 22.8959 68.9877 23.853 68.4321C24.8013 67.8722 25.8645 67.6274 27.0424 67.6979C28.2203 67.7683 29.4584 68.1319 30.7569 68.7887C32.3168 69.5776 33.4923 70.5114 34.2834 71.5901C35.0789 72.66 35.5033 73.8158 35.5566 75.0575C35.6012 76.2948 35.2944 77.5678 34.6363 78.8764C34.1273 79.8885 33.475 80.6967 32.6792 81.301C31.8878 81.8966 30.9726 82.2818 29.9336 82.4567C28.8991 82.6229 27.7582 82.5767 26.511 82.3179C25.2682 82.0505 23.941 81.5598 22.5292 80.8457ZM32.918 77.7939C33.3348 76.9651 33.5181 76.1659 33.4678 75.3963C33.422 74.618 33.1055 73.878 32.5184 73.1761C31.927 72.4611 31.0256 71.7973 29.8143 71.1846C28.298 70.4177 26.9659 70.1106 25.8179 70.2632C24.6656 70.4026 23.7692 71.1092 23.1286 72.383C22.7294 73.177 22.5373 73.9827 22.5525 74.8002C22.559 75.6133 22.6813 76.3591 22.9194 77.0377C23.1575 77.7162 23.4091 78.2484 23.6742 78.6342C24.563 79.0838 25.4587 79.4547 26.3611 79.7469C27.2635 80.0392 28.1313 80.1936 28.9647 80.2102C29.798 80.2268 30.5534 80.0507 31.2307 79.6819C31.9124 79.3045 32.4748 78.6751 32.918 77.7939Z" fill="white"/>
<path d="M32.6983 52.6482C33.856 51.0149 35.3399 50.1118 37.15 49.9391C38.9602 49.7663 40.9905 50.482 43.2409 52.0862C44.728 53.1462 45.8183 54.2593 46.512 55.4253C47.2057 56.5914 47.523 57.765 47.4639 58.9461C47.4104 60.1193 46.9941 61.2556 46.2148 62.3551C45.7235 63.0483 45.2001 63.5926 44.6445 63.9881C44.0889 64.3836 43.5233 64.658 42.9478 64.8114C42.3722 64.9648 41.8141 65.0346 41.2732 65.0209L41.1716 65.1643C41.4986 65.3614 41.8921 65.6 42.3521 65.8799C42.8177 66.1518 43.2135 66.404 43.5395 66.6364L48.9072 70.4626L47.4926 72.4585L28.5747 58.9731L29.7351 57.3358L31.8538 58.4503L31.9216 58.3547C31.7047 57.8163 31.5631 57.2477 31.4968 56.6488C31.4226 56.0442 31.4764 55.4109 31.6582 54.749C31.8378 54.0735 32.1845 53.3732 32.6983 52.6482ZM34.1226 54.1852C33.4789 55.0935 33.1343 55.9512 33.0889 56.7583C33.0492 57.5575 33.2888 58.3339 33.8079 59.0877C34.3191 59.8358 35.0938 60.592 36.1322 61.3562L36.5139 61.6283C37.6192 62.4162 38.6383 62.9627 39.5711 63.2679C40.5096 63.5651 41.3752 63.5765 42.1681 63.3022C42.9667 63.0199 43.7019 62.4048 44.3739 61.4566C44.9499 60.644 45.2112 59.8108 45.1578 58.9573C45.1044 58.1037 44.7813 57.2677 44.1883 56.4493C43.5931 55.6172 42.7865 54.8384 41.7686 54.1128C40.2259 53.0132 38.7867 52.443 37.451 52.4023C36.113 52.348 35.0036 52.9423 34.1226 54.1852Z" fill="white"/>
<path d="M43.4853 41.6967L50.7658 48.6865C50.9067 48.8218 51.0865 49.0012 51.3051 49.2247C51.5168 49.4414 51.7427 49.6785 51.9828 49.9362C52.2158 50.187 52.4419 50.4311 52.6609 50.6684C52.8795 50.8919 53.0561 51.0817 53.1906 51.2379L49.4225 35.4769L51.4859 33.3154L63.0671 44.4342L61.4993 46.0765L54.3985 39.2592C54.173 39.0427 53.8876 38.7619 53.5421 38.4167C53.1966 38.0714 52.8615 37.7295 52.5369 37.3907C52.2052 37.0452 51.9476 36.7776 51.7642 36.5879L55.5419 52.3175L53.4684 54.4897L41.8872 43.3708L43.4853 41.6967Z" fill="white"/>
<path d="M62.143 17.6769L66.076 22.8568C67.4238 21.9996 68.7769 21.4886 70.1353 21.3236C71.4878 21.1509 72.7813 21.3366 74.0159 21.8806C75.2505 22.4246 76.3609 23.346 77.3471 24.6449C78.3156 25.9204 78.9078 27.2253 79.1238 28.5594C79.3475 29.8876 79.1994 31.1864 78.6796 32.4558C78.1675 33.7193 77.297 34.9063 76.068 36.0168L80.2845 41.5701L78.3984 43.0103L74.182 37.457C72.846 38.3298 71.5018 38.8525 70.1493 39.0252C68.7986 39.1843 67.503 38.9879 66.2626 38.4361C65.0221 37.8843 63.9088 36.959 62.9225 35.6601C61.9363 34.3612 61.3343 33.0515 61.1165 31.7311C60.9005 30.397 61.0554 29.0991 61.5812 27.8375C62.101 26.5681 62.99 25.3732 64.2482 24.2526L60.3152 19.0726L62.143 17.6769ZM65.4706 25.8626C64.5499 26.7009 63.9278 27.5691 63.6044 28.4674C63.2809 29.3656 63.2327 30.2871 63.4596 31.232C63.6943 32.1709 64.1866 33.1343 64.9366 34.122C65.6866 35.1098 66.4885 35.8429 67.3422 36.3214C68.1901 36.7921 69.0887 36.9906 70.0381 36.9168C70.9876 36.843 71.9867 36.4794 73.0355 35.8259L65.4706 25.8626ZM67.3161 24.4902L74.8633 34.4301C75.7644 33.5822 76.3699 32.7082 76.6797 31.8082C76.9972 30.9021 77.0386 29.9797 76.8039 29.0408C76.577 28.0959 76.0944 27.1374 75.3563 26.1652C74.2342 24.6874 73.0041 23.8021 71.666 23.5092C70.3219 23.2085 68.872 23.5355 67.3161 24.4902Z" fill="white"/>
<path d="M100.589 6.30677C101.165 7.64324 101.208 8.88015 100.72 10.0175C100.227 11.1459 99.3414 12.1255 98.0618 12.9564L98.1023 13.0505C99.8158 12.5852 101.268 12.5738 102.457 13.0163C103.647 13.4588 104.524 14.3348 105.088 15.6444C105.586 16.8014 105.733 17.9456 105.529 19.0769C105.33 20.1953 104.757 21.247 103.81 22.2319C102.862 23.2169 101.528 24.0819 99.8076 24.827C98.7412 25.2888 97.6874 25.644 96.6462 25.8927C95.6088 26.1504 94.6038 26.261 93.6313 26.2245L92.7218 24.1122C93.3932 24.1407 94.0941 24.1139 94.8243 24.0318C95.5545 23.9497 96.2743 23.8189 96.9838 23.6394C97.6984 23.447 98.3604 23.2189 98.9697 22.955C100.744 22.1866 101.942 21.2637 102.562 20.1862C103.188 19.0958 103.232 17.9273 102.695 16.6805C102.143 15.3979 101.208 14.6959 99.8909 14.5747C98.5786 14.4406 96.9635 14.7888 95.0458 15.6193L92.2229 16.8417L91.3945 14.9177L94.1233 13.736C95.4137 13.1772 96.4209 12.5655 97.1448 11.9008C97.8649 11.2272 98.3177 10.5256 98.5033 9.79609C98.694 9.05371 98.6272 8.30579 98.3028 7.55235C97.8586 6.52085 97.1405 5.89003 96.1483 5.65989C95.165 5.42587 94.073 5.56886 92.8722 6.08887C91.6265 6.62827 90.6655 7.236 89.989 7.91204C89.3087 8.57911 88.6913 9.33067 88.1369 10.1667L86.3626 9.08331C86.7202 8.48151 87.1649 7.88454 87.6968 7.29241C88.2247 6.69131 88.8534 6.12644 89.5827 5.59779C90.3081 5.06017 91.1368 4.58957 92.0688 4.18598C93.4578 3.58448 94.7181 3.28884 95.8495 3.29907C96.9771 3.30032 97.9456 3.56198 98.7552 4.08405C99.5647 4.60612 100.176 5.34703 100.589 6.30677Z" fill="white"/>
<path d="M113.749 3.59255C115.596 3.09057 117.08 3.13273 118.199 3.71905C119.319 4.30536 120.124 5.50827 120.616 7.32778L123.463 17.863L121.752 18.3279L120.681 16.1599L120.568 16.1906C120.287 16.8741 119.963 17.4731 119.597 17.9877C119.227 18.4929 118.758 18.929 118.19 19.296C117.628 19.651 116.9 19.9502 116.005 20.1935C115.062 20.4496 114.179 20.5125 113.355 20.3823C112.54 20.2496 111.83 19.9062 111.225 19.3521C110.63 18.7954 110.193 18.0033 109.915 16.9757C109.498 15.4296 109.789 14.0752 110.79 12.9127C111.791 11.7501 113.535 10.7905 116.021 10.0338L118.662 9.19456L118.406 8.2471C118.044 6.90839 117.503 6.04847 116.783 5.66733C116.063 5.2862 115.18 5.23777 114.134 5.52206C113.324 5.74231 112.583 6.07017 111.911 6.50563C111.24 6.94108 110.618 7.40872 110.045 7.90853L108.842 6.32266C109.443 5.77489 110.161 5.2508 110.997 4.75039C111.833 4.24998 112.75 3.86403 113.749 3.59255ZM119.081 10.8568L116.747 11.5973C114.835 12.1978 113.559 12.8837 112.918 13.655C112.276 14.4264 112.093 15.3212 112.368 16.3393C112.608 17.2255 113.054 17.8077 113.705 18.086C114.357 18.3642 115.126 18.383 116.012 18.1423C117.388 17.7683 118.411 17.0805 119.081 16.0786C119.751 15.0768 119.879 13.8123 119.467 12.285L119.081 10.8568Z" fill="white"/>
<path d="M140.832 0.289293L142.801 16.2228L140.374 16.5245L138.661 2.66996L130.172 3.7252L131.884 17.5798L129.457 17.8815L127.487 1.94805L140.832 0.289293Z" fill="white"/>
<path d="M163.667 9.8045C163.622 11.1221 163.41 12.2922 163.033 13.3148C162.655 14.3374 162.132 15.1938 161.463 15.8838C160.795 16.5738 159.995 17.0931 159.064 17.4418C158.144 17.781 157.108 17.9306 155.956 17.8904C154.883 17.853 153.903 17.6332 153.018 17.2311C152.143 16.8195 151.391 16.2461 150.762 15.5108C150.142 14.7759 149.67 13.8849 149.345 12.8378C149.029 11.791 148.894 10.6088 148.94 9.29127C149.001 7.53451 149.35 6.05164 149.988 4.84266C150.627 3.62391 151.508 2.71168 152.633 2.10597C153.769 1.49084 155.103 1.20998 156.635 1.26337C158.099 1.31439 159.366 1.6859 160.436 2.3779C161.517 3.07023 162.338 4.04669 162.9 5.30727C163.472 6.55843 163.728 8.05751 163.667 9.8045ZM151.458 9.37902C151.413 10.6673 151.546 11.7908 151.854 12.7494C152.163 13.708 152.665 14.4583 153.359 15.0004C154.054 15.5425 154.962 15.8331 156.085 15.8722C157.197 15.911 158.119 15.6842 158.849 15.1917C159.589 14.6996 160.147 13.9862 160.521 13.0514C160.895 12.1166 161.105 11.005 161.149 9.71675C161.194 8.43822 161.061 7.32942 160.752 6.39034C160.443 5.4415 159.941 4.70091 159.246 4.16857C158.551 3.63623 157.637 3.35034 156.505 3.31088C154.836 3.25272 153.592 3.76147 152.773 4.83711C151.964 5.9131 151.526 7.42706 151.458 9.37902Z" fill="white"/>
<path d="M179.367 21.8217L176.932 21.3752L179.446 7.58397L174.648 6.70428C174.003 9.15734 173.369 11.2453 172.747 12.968C172.137 14.6829 171.508 16.0619 170.861 17.1049C170.226 18.1401 169.548 18.8647 168.827 19.2786C168.118 19.6847 167.336 19.8094 166.481 19.6526C166.222 19.6051 165.979 19.5457 165.754 19.4746C165.529 19.4036 165.341 19.3194 165.189 19.2222L165.521 17.4065C165.638 17.4678 165.763 17.5204 165.894 17.5642C166.034 17.6099 166.181 17.6468 166.335 17.675C166.767 17.7542 167.194 17.6487 167.614 17.3584C168.045 17.0602 168.472 16.5725 168.893 15.8952C169.324 15.2196 169.756 14.3457 170.19 13.2736C170.625 12.1918 171.068 10.9078 171.518 9.42151C171.979 7.92741 172.452 6.22716 172.939 4.32075L182.247 6.0273L179.367 21.8217Z" fill="white"/>
<path d="M192.488 10.0903L190.342 16.4775L198.82 19.3438L200.967 12.9567L203.271 13.7354L198.156 28.9534L195.852 28.1747L198.162 21.3016L189.684 18.4353L187.373 25.3084L185.056 24.525L190.171 9.30692L192.488 10.0903Z" fill="white"/>
<path d="M212.375 19.4037L207.708 28.3525C207.618 28.5257 207.496 28.7486 207.343 29.0211C207.194 29.285 207.03 29.5682 206.85 29.8709C206.675 30.1649 206.504 30.4502 206.338 30.7269C206.184 30.9994 206.052 31.222 205.94 31.3948L219.99 23.398L222.636 24.7862L215.212 39.0211L213.201 37.9664L217.753 29.2384C217.898 28.9613 218.087 28.6086 218.322 28.1802C218.556 27.7518 218.791 27.3343 219.025 26.9278C219.263 26.5126 219.448 26.1903 219.578 25.9611L205.561 33.9585L202.902 32.5635L210.326 18.3286L212.375 19.4037Z" fill="white"/>
<path d="M236.806 38.9179L232.568 35.7547L224.231 46.9882L222.306 45.5511L230.643 34.3177L226.464 31.1983L227.695 29.5397L238.037 37.2593L236.806 38.9179Z" fill="white"/>
<path d="M239.382 48.4988L242.944 51.8946C243.934 52.8378 244.64 53.7468 245.062 54.6215C245.485 55.4962 245.627 56.3331 245.488 57.1321C245.357 57.9379 244.949 58.7022 244.264 59.4253C243.579 60.1483 242.822 60.6206 241.993 60.8423C241.171 61.0707 240.286 61.0102 239.339 60.6608C238.399 60.3181 237.403 59.6448 236.349 58.6408L231.122 53.6584L242.165 42.0051L243.936 43.6929L239.382 48.4988ZM242.412 57.8225C243.091 57.1066 243.307 56.3679 243.06 55.6063C242.826 54.8444 242.257 54.0322 241.352 53.1698L237.991 49.9661L234.253 53.9107L237.625 57.1246C238.473 57.9331 239.31 58.4341 240.136 58.6275C240.968 58.8139 241.727 58.5455 242.412 57.8225Z" fill="white"/>
<path d="M255.989 69.0274C257.883 67.7491 259.621 66.8417 261.201 66.3052C262.79 65.7633 264.245 65.6004 265.566 65.8164C266.9 66.035 268.122 66.6474 269.233 67.6535C270.212 68.5003 271.163 69.3907 272.083 70.3245C273.012 71.2529 273.893 72.172 274.727 73.0819L273.191 74.631C272.776 74.1693 272.331 73.6914 271.859 73.1974C271.394 72.698 270.922 72.204 270.441 71.7155C269.968 71.2215 269.51 70.7654 269.064 70.3472C268.627 69.9236 268.224 69.5594 267.855 69.2548C267.206 68.6911 266.483 68.3136 265.684 68.1222C264.891 67.9389 263.991 67.9745 262.986 68.2288C261.986 68.4913 260.852 69.0093 259.583 69.7829L259.681 69.9288C260.201 69.9318 260.776 70.0266 261.407 70.2134C262.038 70.4002 262.663 70.709 263.281 71.1399C263.907 71.5654 264.466 72.143 264.955 72.8728C265.728 74.0243 266.122 75.1546 266.137 76.2637C266.16 77.3673 265.853 78.4169 265.216 79.4126C264.578 80.4082 263.657 81.313 262.45 82.1269C261.001 83.1048 259.614 83.6755 258.29 83.8392C256.97 84.011 255.757 83.8162 254.652 83.2548C253.554 82.6879 252.597 81.7962 251.781 80.5798C251.149 79.6392 250.766 78.6729 250.629 77.681C250.498 76.6972 250.611 75.7082 250.967 74.714C251.328 73.7278 251.927 72.7527 252.762 71.7887C253.602 70.8328 254.678 69.9123 255.989 69.0274ZM253.562 79.6072C254.079 80.3775 254.685 80.9292 255.378 81.2621C256.078 81.6031 256.876 81.6888 257.774 81.519C258.685 81.3519 259.703 80.8887 260.828 80.1293C262.236 79.1788 263.155 78.1642 263.584 77.0855C264.026 76.0095 263.85 74.8795 263.055 73.6956C262.56 72.9576 261.953 72.3951 261.235 72.0081C260.525 71.6156 259.816 71.3573 259.11 71.2333C258.403 71.1092 257.818 71.0687 257.352 71.1116C256.527 71.6688 255.766 72.2705 255.071 72.9165C254.375 73.5626 253.817 74.246 253.395 74.9666C252.973 75.6873 252.756 76.4341 252.746 77.2071C252.741 77.9881 253.013 78.7881 253.562 79.6072Z" fill="white"/>
<path d="M275.251 91.0826C276.11 92.8906 276.175 94.6297 275.444 96.2996C274.713 97.9695 273.101 99.4005 270.608 100.593C268.96 101.38 267.459 101.795 266.106 101.836C264.752 101.877 263.575 101.584 262.575 100.958C261.579 100.341 260.791 99.4243 260.213 98.2071C259.848 97.4398 259.628 96.7166 259.554 96.0377C259.48 95.3587 259.517 94.7298 259.663 94.151C259.81 93.5721 260.021 93.0492 260.296 92.582L260.221 92.4232C259.89 92.614 259.49 92.8428 259.022 93.1097C258.559 93.3855 258.146 93.6097 257.785 93.7824L251.838 96.6256L250.788 94.4163L271.748 84.3956L272.609 86.2081L270.607 87.5227L270.657 87.6285C271.232 87.7001 271.796 87.8525 272.35 88.0855C272.913 88.3143 273.439 88.6692 273.927 89.1502C274.428 89.6358 274.869 90.28 275.251 91.0826ZM273.218 91.5835C272.74 90.578 272.161 89.8592 271.48 89.4272C270.803 89.0039 270.01 88.8365 269.1 88.925C268.199 89.0092 267.163 89.3205 265.992 89.8588L265.569 90.061C264.344 90.6465 263.372 91.2737 262.652 91.9427C261.936 92.6205 261.505 93.3734 261.358 94.2014C261.215 95.0382 261.393 95.9814 261.892 97.0309C262.319 97.9306 262.918 98.5644 263.688 98.9325C264.457 99.3006 265.343 99.4238 266.345 99.302C267.36 99.1849 268.431 98.8568 269.559 98.3176C271.268 97.5005 272.465 96.5166 273.151 95.3661C273.85 94.2203 273.872 92.9594 273.218 91.5835Z" fill="white"/>
<path d="M279.712 106.492L270.058 109.433C269.871 109.49 269.627 109.56 269.325 109.641C269.032 109.72 268.715 109.801 268.373 109.885C268.041 109.966 267.717 110.044 267.403 110.119C267.102 110.201 266.85 110.263 266.648 110.304L282.205 114.721L283.071 117.581L267.714 122.26L267.055 120.087L276.472 117.218C276.771 117.127 277.155 117.015 277.625 116.882C278.095 116.749 278.557 116.624 279.011 116.506C279.475 116.385 279.834 116.291 280.089 116.224L264.554 111.83L263.684 108.956L279.041 104.277L279.712 106.492Z" fill="white"/>
<path d="M291.359 134.247L284.918 135.149C285.002 136.744 284.782 138.175 284.258 139.442C283.744 140.707 282.947 141.745 281.867 142.557C280.787 143.369 279.44 143.888 277.824 144.114C276.238 144.336 274.812 144.215 273.544 143.752C272.278 143.298 271.22 142.534 270.371 141.46C269.523 140.395 268.917 139.055 268.554 137.439L261.649 138.406L261.322 136.055L268.227 135.089C268.124 133.496 268.329 132.067 268.843 130.802C269.368 129.545 270.176 128.51 271.265 127.697C272.355 126.884 273.707 126.364 275.323 126.138C276.938 125.912 278.373 126.026 279.63 126.482C280.897 126.945 281.951 127.715 282.791 128.79C283.64 129.865 284.244 131.225 284.601 132.871L291.042 131.969L291.359 134.247ZM282.599 133.151C282.322 131.938 281.872 130.97 281.249 130.249C280.626 129.527 279.847 129.035 278.913 128.771C277.981 128.517 276.9 128.476 275.672 128.648C274.444 128.82 273.412 129.162 272.576 129.673C271.749 130.183 271.135 130.871 270.733 131.735C270.331 132.6 270.156 133.65 270.21 134.885L282.599 133.151ZM282.887 135.433L270.527 137.163C270.822 138.364 271.286 139.32 271.917 140.03C272.55 140.75 273.332 141.237 274.265 141.491C275.199 141.755 276.27 141.802 277.479 141.633C279.317 141.376 280.692 140.735 281.604 139.71C282.526 138.683 282.954 137.258 282.887 135.433Z" fill="white"/>
</svg>
