<svg width="180" height="55" viewBox="0 0 180 55" fill="none" xmlns="http://www.w3.org/2000/svg">
<path d="M90.4 7.8H93.24V8H93.14C93.0333 8 92.94 8.04 92.86 8.12C92.78 8.18667 92.7067 8.27333 92.64 8.38C92.5867 8.48667 92.5467 8.6 92.52 8.72C92.4933 8.84 92.48 8.94667 92.48 9.04V16.94C92.48 17.46 92.5333 17.94 92.64 18.38C92.7467 18.82 92.9267 19.2 93.18 19.52C93.4333 19.84 93.7667 20.0933 94.18 20.28C94.5933 20.4533 95.1 20.54 95.7 20.54C96.3667 20.54 96.9 20.4333 97.3 20.22C97.7 20.0067 98.0067 19.7333 98.22 19.4C98.4333 19.0533 98.5733 18.6667 98.64 18.24C98.7067 17.8133 98.74 17.3933 98.74 16.98V9.04C98.74 8.94667 98.7267 8.84 98.7 8.72C98.6733 8.6 98.6267 8.48667 98.56 8.38C98.5067 8.27333 98.44 8.18667 98.36 8.12C98.28 8.04 98.1933 8 98.1 8H98V7.8H100.18V8H100.08C99.9733 8 99.88 8.04 99.8 8.12C99.7333 8.18667 99.6667 8.27333 99.6 8.38C99.5467 8.48667 99.5067 8.6 99.48 8.72C99.4533 8.84 99.44 8.94667 99.44 9.04V16.92C99.44 17.7867 99.3333 18.5 99.12 19.06C98.9067 19.6067 98.6133 20.04 98.24 20.36C97.8667 20.68 97.4267 20.9 96.92 21.02C96.4267 21.14 95.9 21.2 95.34 21.2C94.74 21.2 94.18 21.1333 93.66 21C93.1533 20.88 92.7133 20.66 92.34 20.34C91.9667 20.02 91.6733 19.5867 91.46 19.04C91.2467 18.48 91.14 17.78 91.14 16.94V9.04C91.14 8.94667 91.1267 8.84 91.1 8.72C91.0733 8.6 91.0267 8.48667 90.96 8.38C90.9067 8.27333 90.84 8.18667 90.76 8.12C90.68 8.04 90.5933 8 90.5 8H90.4V7.8ZM102.16 7.8H105.02V8H104.92C104.826 8 104.74 8.04 104.66 8.12C104.58 8.18667 104.513 8.27333 104.46 8.38C104.406 8.47333 104.36 8.58667 104.32 8.72C104.293 8.84 104.28 8.94667 104.28 9.04V19.7C104.28 19.8067 104.293 19.9267 104.32 20.06C104.346 20.18 104.386 20.2933 104.44 20.4C104.506 20.5067 104.573 20.6 104.64 20.68C104.72 20.76 104.813 20.8 104.92 20.8H105.02V21H102.16V20.8H102.26C102.366 20.8 102.46 20.7667 102.54 20.7C102.62 20.62 102.686 20.5267 102.74 20.42C102.806 20.3 102.853 20.18 102.88 20.06C102.906 19.9267 102.92 19.8067 102.92 19.7V9.04C102.92 8.94667 102.906 8.84 102.88 8.72C102.853 8.6 102.806 8.48667 102.74 8.38C102.686 8.27333 102.62 8.18667 102.54 8.12C102.46 8.04 102.366 8 102.26 8H102.16V7.8ZM106.883 22.22L106.143 21.98L111.783 6.72L112.523 6.92L106.883 22.22ZM113.603 7.8H116.443V8H116.343C116.236 8 116.143 8.04 116.063 8.12C115.983 8.18667 115.91 8.27333 115.843 8.38C115.79 8.48667 115.75 8.6 115.723 8.72C115.696 8.84 115.683 8.94667 115.683 9.04V16.94C115.683 17.46 115.736 17.94 115.843 18.38C115.95 18.82 116.13 19.2 116.383 19.52C116.636 19.84 116.97 20.0933 117.383 20.28C117.796 20.4533 118.303 20.54 118.903 20.54C119.57 20.54 120.103 20.4333 120.503 20.22C120.903 20.0067 121.21 19.7333 121.423 19.4C121.636 19.0533 121.776 18.6667 121.843 18.24C121.91 17.8133 121.943 17.3933 121.943 16.98V9.04C121.943 8.94667 121.93 8.84 121.903 8.72C121.876 8.6 121.83 8.48667 121.763 8.38C121.71 8.27333 121.643 8.18667 121.563 8.12C121.483 8.04 121.396 8 121.303 8H121.203V7.8H123.383V8H123.283C123.176 8 123.083 8.04 123.003 8.12C122.936 8.18667 122.87 8.27333 122.803 8.38C122.75 8.48667 122.71 8.6 122.683 8.72C122.656 8.84 122.643 8.94667 122.643 9.04V16.92C122.643 17.7867 122.536 18.5 122.323 19.06C122.11 19.6067 121.816 20.04 121.443 20.36C121.07 20.68 120.63 20.9 120.123 21.02C119.63 21.14 119.103 21.2 118.543 21.2C117.943 21.2 117.383 21.1333 116.863 21C116.356 20.88 115.916 20.66 115.543 20.34C115.17 20.02 114.876 19.5867 114.663 19.04C114.45 18.48 114.343 17.78 114.343 16.94V9.04C114.343 8.94667 114.33 8.84 114.303 8.72C114.276 8.6 114.23 8.48667 114.163 8.38C114.11 8.27333 114.043 8.18667 113.963 8.12C113.883 8.04 113.796 8 113.703 8H113.603V7.8ZM128.723 14.38L125.943 9.18C125.876 9.07333 125.796 8.95333 125.703 8.82C125.623 8.67333 125.536 8.54 125.443 8.42C125.349 8.3 125.243 8.2 125.123 8.12C125.016 8.04 124.903 8 124.783 8V7.8H127.623V8C127.543 8 127.449 8.05333 127.343 8.16C127.249 8.26667 127.203 8.4 127.203 8.56C127.203 8.65333 127.229 8.74667 127.283 8.84L129.543 13.04L131.603 9.04C131.603 9 131.623 8.96 131.663 8.92C131.689 8.85333 131.716 8.78667 131.743 8.72C131.783 8.64 131.803 8.56667 131.803 8.5C131.803 8.28667 131.729 8.15333 131.583 8.1C131.436 8.03333 131.343 8 131.303 8V7.8H133.523V8C133.296 8 133.076 8.12667 132.863 8.38C132.663 8.62 132.503 8.86 132.383 9.1L129.943 13.76L133.063 19.64C133.129 19.76 133.209 19.8867 133.303 20.02C133.396 20.1533 133.496 20.28 133.603 20.4C133.709 20.52 133.816 20.62 133.923 20.7C134.043 20.7667 134.163 20.8 134.283 20.8V21H131.443V20.8C131.523 20.8 131.603 20.7467 131.683 20.64C131.763 20.5333 131.803 20.4067 131.803 20.26C131.803 20.1667 131.763 20.0467 131.683 19.9L129.143 15.14L126.643 19.9C126.603 19.98 126.563 20.0733 126.523 20.18C126.496 20.2867 126.483 20.3867 126.483 20.48C126.483 20.6933 126.583 20.8 126.783 20.8V21H124.603V20.8C124.696 20.8 124.803 20.7733 124.923 20.72C125.043 20.6533 125.163 20.5733 125.283 20.48C125.403 20.3867 125.516 20.28 125.623 20.16C125.729 20.04 125.816 19.9267 125.883 19.82L128.723 14.38Z" fill="#014866"/>
<path d="M19.6 9.5C22.2 9.5 24.5333 9.96667 26.6 10.9C28.6667 11.8 30.4167 13.0333 31.85 14.6C33.3167 16.1333 34.4333 17.9333 35.2 20C36 22.0333 36.4 24.1667 36.4 26.4C36.4 28.9 35.9333 31.2 35 33.3C34.1 35.4 32.85 37.2 31.25 38.7C29.65 40.2 27.7833 41.3833 25.65 42.25C23.55 43.0833 21.3 43.5 18.9 43.5C16.3333 43.5 14.0167 43.0333 11.95 42.1C9.91667 41.1667 8.18333 39.9333 6.75 38.4C5.35 36.8667 4.26667 35.1 3.5 33.1C2.73333 31.1 2.35 29.0167 2.35 26.85C2.35 24.7167 2.73333 22.6167 3.5 20.55C4.26667 18.45 5.38333 16.5833 6.85 14.95C8.35 13.3167 10.1667 12 12.3 11C14.4333 10 16.8667 9.5 19.6 9.5ZM19.55 41.75C21.7833 41.65 23.7333 41.15 25.4 40.25C27.1 39.3167 28.5167 38.15 29.65 36.75C30.7833 35.3167 31.6167 33.75 32.15 32.05C32.7167 30.35 33 28.6667 33 27C33 25.1667 32.6667 23.3167 32 21.45C31.3333 19.5833 30.3833 17.9 29.15 16.4C27.9167 14.8667 26.4333 13.6333 24.7 12.7C23 11.7333 21.0833 11.25 18.95 11.25C16.8833 11.25 15.0333 11.7167 13.4 12.65C11.7667 13.55 10.3667 14.7167 9.2 16.15C8.06667 17.5833 7.2 19.1833 6.6 20.95C6 22.7167 5.7 24.45 5.7 26.15C5.7 27.9833 6.05 29.8333 6.75 31.7C7.45 33.5333 8.41667 35.2 9.65 36.7C10.8833 38.2 12.3333 39.4167 14 40.35C15.7 41.2833 17.55 41.75 19.55 41.75ZM47.6871 42.5H47.9371V43H40.7871V42.5H41.0371C41.3038 42.5 41.5371 42.4 41.7371 42.2C41.9371 42 42.1038 41.7667 42.2371 41.5C42.4038 41.2333 42.5204 40.95 42.5871 40.65C42.6538 40.3167 42.6871 40.0167 42.6871 39.75V13.1C42.6871 12.8667 42.6538 12.6 42.5871 12.3C42.5204 12 42.4038 11.7167 42.2371 11.45C42.1038 11.1833 41.9371 10.9667 41.7371 10.8C41.5371 10.6 41.3204 10.5 41.0871 10.5H40.8371V10H47.9871V10.5H47.7371C47.4704 10.5 47.2371 10.6 47.0371 10.8C46.8371 10.9667 46.6538 11.1833 46.4871 11.45C46.3538 11.7167 46.2371 12 46.1371 12.3C46.0704 12.6 46.0371 12.8667 46.0371 13.1V24.7L58.7371 12.1C58.9371 11.8667 59.0371 11.6 59.0371 11.3C59.0371 10.7667 58.8371 10.5 58.4371 10.5H58.1871V10H64.2871V10.5H64.0371C63.5704 10.5 63.0871 10.6667 62.5871 11C62.0871 11.3333 61.5871 11.75 61.0871 12.25L50.5871 22.7L61.6371 39.45C61.6704 39.5167 61.8204 39.7167 62.0871 40.05C62.3538 40.3833 62.6704 40.7333 63.0371 41.1C63.4371 41.4667 63.8704 41.8 64.3371 42.1C64.8371 42.3667 65.3371 42.5 65.8371 42.5V43H64.6371C63.6371 43 62.7871 42.95 62.0871 42.85C61.4204 42.7167 60.8371 42.5167 60.3371 42.25C59.8371 41.9833 59.3871 41.65 58.9871 41.25C58.6204 40.85 58.2371 40.35 57.8371 39.75L48.1371 25.1L46.0371 27.25V39.75C46.0371 40.0167 46.0704 40.3 46.1371 40.6C46.2371 40.9 46.3538 41.2 46.4871 41.5C46.6204 41.7667 46.7871 42 46.9871 42.2C47.1871 42.4 47.4204 42.5 47.6871 42.5Z" fill="#014866"/>
<line x1="79" x2="79" y2="55" stroke="#014866"/>
<path d="M96.76 43V42.12C96.5333 42.3733 96.2267 42.6067 95.84 42.82C95.4667 43.0333 94.9933 43.14 94.42 43.14C93.7133 43.14 93.0933 43.02 92.56 42.78C92.04 42.5267 91.6067 42.2 91.26 41.8C90.9133 41.4 90.6533 40.9467 90.48 40.44C90.32 39.92 90.24 39.3867 90.24 38.84C90.24 38.3067 90.3267 37.78 90.5 37.26C90.6733 36.7267 90.9333 36.2533 91.28 35.84C91.6267 35.4267 92.06 35.0933 92.58 34.84C93.1 34.5867 93.7 34.46 94.38 34.46C94.8333 34.46 95.28 34.5467 95.72 34.72C96.16 34.88 96.5067 35.0933 96.76 35.36V31.46C96.76 31.2333 96.7267 31.02 96.66 30.82C96.5933 30.62 96.4 30.5133 96.08 30.5V30.3L98.08 29.68V41.7C98.08 41.8067 98.0933 41.9267 98.12 42.06C98.1467 42.18 98.1867 42.2933 98.24 42.4C98.2933 42.5067 98.36 42.6 98.44 42.68C98.52 42.76 98.6133 42.8 98.72 42.8V43H96.76ZM94.56 42.48C94.84 42.48 95.1133 42.4267 95.38 42.32C95.6467 42.2 95.88 42.0467 96.08 41.86C96.28 41.66 96.44 41.4333 96.56 41.18C96.6933 40.9133 96.76 40.6267 96.76 40.32V37.58C96.76 37.2067 96.68 36.8733 96.52 36.58C96.36 36.2733 96.16 36.0133 95.92 35.8C95.68 35.5867 95.4133 35.4267 95.12 35.32C94.84 35.2 94.5667 35.14 94.3 35.14C93.86 35.14 93.4667 35.2467 93.12 35.46C92.7733 35.66 92.48 35.9267 92.24 36.26C92 36.58 91.82 36.9467 91.7 37.36C91.58 37.76 91.52 38.16 91.52 38.56C91.52 39.0267 91.5867 39.4933 91.72 39.96C91.8533 40.4133 92.0467 40.8267 92.3 41.2C92.5667 41.56 92.8867 41.86 93.26 42.1C93.6333 42.34 94.0667 42.4667 94.56 42.48ZM101.754 38.96C101.807 39.4267 101.921 39.8733 102.094 40.3C102.267 40.7133 102.494 41.08 102.774 41.4C103.067 41.72 103.421 41.98 103.834 42.18C104.247 42.3667 104.727 42.46 105.274 42.46C105.567 42.46 105.874 42.42 106.194 42.34C106.527 42.2467 106.834 42.12 107.114 41.96C107.394 41.8 107.641 41.6067 107.854 41.38C108.081 41.14 108.234 40.8733 108.314 40.58H108.494V42.08C108.414 42.08 108.321 42.1067 108.214 42.16C108.121 42.2133 108.007 42.28 107.874 42.36C107.607 42.52 107.247 42.6933 106.794 42.88C106.341 43.0533 105.741 43.14 104.994 43.14C104.394 43.14 103.821 43.0533 103.274 42.88C102.741 42.7067 102.267 42.44 101.854 42.08C101.441 41.72 101.107 41.26 100.854 40.7C100.614 40.14 100.494 39.4733 100.494 38.7C100.494 38.2067 100.574 37.7067 100.734 37.2C100.907 36.6933 101.161 36.24 101.494 35.84C101.841 35.4267 102.281 35.0933 102.814 34.84C103.347 34.5867 103.987 34.46 104.734 34.46C105.401 34.46 105.981 34.5733 106.474 34.8C106.981 35.0267 107.394 35.34 107.714 35.74C108.047 36.14 108.294 36.6133 108.454 37.16C108.614 37.7067 108.694 38.3067 108.694 38.96H101.754ZM104.654 35.12C104.187 35.12 103.781 35.2133 103.434 35.4C103.101 35.5867 102.814 35.8267 102.574 36.12C102.334 36.4133 102.147 36.7467 102.014 37.12C101.881 37.4933 101.794 37.8667 101.754 38.24H107.454C107.441 37.8533 107.367 37.4733 107.234 37.1C107.114 36.7267 106.941 36.3933 106.714 36.1C106.487 35.8067 106.201 35.5733 105.854 35.4C105.507 35.2133 105.107 35.12 104.654 35.12ZM116.275 40.72C116.275 41.0667 116.188 41.3867 116.015 41.68C115.842 41.9733 115.602 42.2333 115.295 42.46C115.002 42.6733 114.655 42.8467 114.255 42.98C113.855 43.1 113.422 43.16 112.955 43.16C112.382 43.16 111.915 43.0867 111.555 42.94C111.195 42.78 110.888 42.62 110.635 42.46C110.462 42.3533 110.302 42.2667 110.155 42.2C110.008 42.12 109.848 42.08 109.675 42.08V40.56H109.875C109.915 40.7467 110.028 40.9533 110.215 41.18C110.415 41.3933 110.648 41.5933 110.915 41.78C111.195 41.9667 111.495 42.1267 111.815 42.26C112.148 42.38 112.482 42.44 112.815 42.44C113.055 42.44 113.302 42.4133 113.555 42.36C113.808 42.3067 114.035 42.22 114.235 42.1C114.448 41.98 114.622 41.8333 114.755 41.66C114.902 41.4733 114.975 41.2533 114.975 41C114.975 40.7467 114.902 40.5267 114.755 40.34C114.608 40.1533 114.422 39.9933 114.195 39.86C113.968 39.7133 113.708 39.5867 113.415 39.48C113.122 39.3733 112.828 39.2733 112.535 39.18C112.188 39.0733 111.835 38.9533 111.475 38.82C111.128 38.6867 110.815 38.5333 110.535 38.36C110.255 38.1733 110.028 37.9533 109.855 37.7C109.682 37.4333 109.595 37.12 109.595 36.76C109.595 36.4533 109.648 36.16 109.755 35.88C109.875 35.6 110.062 35.36 110.315 35.16C110.582 34.9467 110.922 34.78 111.335 34.66C111.748 34.5267 112.248 34.46 112.835 34.46C113.355 34.46 113.755 34.5067 114.035 34.6C114.328 34.68 114.568 34.7667 114.755 34.86C114.875 34.9267 114.995 34.98 115.115 35.02C115.235 35.0467 115.368 35.06 115.515 35.06V36.46H115.355C115.115 36.02 114.748 35.6867 114.255 35.46C113.762 35.2333 113.255 35.12 112.735 35.12C112.402 35.12 112.115 35.1667 111.875 35.26C111.635 35.34 111.435 35.4467 111.275 35.58C111.128 35.7 111.015 35.84 110.935 36C110.868 36.16 110.835 36.32 110.835 36.48C110.835 36.7067 110.895 36.9 111.015 37.06C111.148 37.22 111.322 37.36 111.535 37.48C111.762 37.6 112.008 37.7133 112.275 37.82C112.555 37.9267 112.848 38.0267 113.155 38.12C113.528 38.24 113.902 38.3733 114.275 38.52C114.648 38.6533 114.982 38.82 115.275 39.02C115.568 39.22 115.808 39.46 115.995 39.74C116.182 40.0067 116.275 40.3333 116.275 40.72ZM118.278 43V42.8C118.384 42.8 118.478 42.76 118.558 42.68C118.638 42.6 118.704 42.5067 118.758 42.4C118.811 42.2933 118.851 42.18 118.878 42.06C118.904 41.9267 118.918 41.8067 118.918 41.7V36.16C118.918 35.9333 118.884 35.72 118.818 35.52C118.751 35.3067 118.558 35.1933 118.238 35.18V35L120.238 34.36V41.7C120.238 41.8067 120.251 41.9267 120.278 42.06C120.304 42.18 120.344 42.2933 120.398 42.4C120.451 42.5067 120.518 42.6 120.598 42.68C120.678 42.76 120.771 42.8 120.878 42.8V43H118.278ZM118.378 32.44C118.378 32.1733 118.464 31.9467 118.638 31.76C118.824 31.5733 119.051 31.48 119.318 31.48C119.584 31.48 119.811 31.5733 119.998 31.76C120.184 31.9467 120.278 32.1733 120.278 32.44C120.278 32.7067 120.184 32.9267 119.998 33.1C119.811 33.2733 119.584 33.36 119.318 33.36C119.051 33.36 118.824 33.2733 118.638 33.1C118.464 32.9267 118.378 32.7067 118.378 32.44ZM127.177 46.72C127.577 46.72 127.957 46.68 128.317 46.6C128.677 46.5333 128.991 46.4333 129.257 46.3C129.537 46.1667 129.757 46.0067 129.917 45.82C130.077 45.6333 130.157 45.4333 130.157 45.22C130.157 44.9933 130.044 44.8 129.817 44.64C129.604 44.48 129.311 44.34 128.937 44.22C128.564 44.1 128.131 43.9933 127.637 43.9C127.144 43.82 126.631 43.7333 126.097 43.64L125.077 43.46C124.771 43.7 124.557 43.9533 124.437 44.22C124.317 44.4867 124.257 44.72 124.257 44.92C124.257 45.2 124.331 45.4467 124.477 45.66C124.637 45.8867 124.844 46.08 125.097 46.24C125.364 46.4 125.671 46.52 126.017 46.6C126.377 46.68 126.764 46.72 127.177 46.72ZM128.277 42.72C128.811 42.8 129.251 42.9067 129.597 43.04C129.957 43.1733 130.244 43.3267 130.457 43.5C130.671 43.6867 130.817 43.8867 130.897 44.1C130.977 44.3267 131.017 44.5667 131.017 44.82C131.017 45.2733 130.891 45.6667 130.637 46C130.397 46.3333 130.077 46.6067 129.677 46.82C129.291 47.0467 128.844 47.2133 128.337 47.32C127.844 47.4267 127.337 47.48 126.817 47.48C126.311 47.48 125.824 47.4267 125.357 47.32C124.891 47.2267 124.477 47.08 124.117 46.88C123.757 46.68 123.471 46.4267 123.257 46.12C123.044 45.8267 122.937 45.4867 122.937 45.1C122.937 44.7533 123.044 44.42 123.257 44.1C123.471 43.7933 123.817 43.4867 124.297 43.18C123.831 42.94 123.471 42.62 123.217 42.22C122.977 41.8067 122.857 41.3867 122.857 40.96C122.857 40.7067 122.917 40.46 123.037 40.22C123.157 39.9667 123.351 39.7333 123.617 39.52C123.391 39.2533 123.231 38.9867 123.137 38.72C123.044 38.4533 122.997 38.1667 122.997 37.86C122.997 37.38 123.097 36.9333 123.297 36.52C123.497 36.1067 123.771 35.7467 124.117 35.44C124.464 35.1333 124.871 34.8933 125.337 34.72C125.804 34.5467 126.304 34.46 126.837 34.46C127.397 34.46 127.931 34.56 128.437 34.76C128.944 34.9467 129.371 35.1933 129.717 35.5H131.157V36.22H130.237C130.331 36.42 130.424 36.66 130.517 36.94C130.611 37.2067 130.657 37.4867 130.657 37.78C130.657 38.2067 130.557 38.6133 130.357 39C130.157 39.3733 129.877 39.7067 129.517 40C129.171 40.28 128.757 40.5067 128.277 40.68C127.811 40.84 127.311 40.92 126.777 40.92C126.284 40.92 125.804 40.8467 125.337 40.7C124.871 40.5533 124.457 40.34 124.097 40.06C123.951 40.1533 123.851 40.2733 123.797 40.42C123.744 40.5533 123.717 40.6933 123.717 40.84C123.717 41.2667 123.911 41.6 124.297 41.84C124.684 42.0667 125.177 42.2267 125.777 42.32L128.277 42.72ZM126.597 35.16C126.277 35.16 125.977 35.22 125.697 35.34C125.417 35.4467 125.171 35.6 124.957 35.8C124.744 36 124.571 36.2467 124.437 36.54C124.317 36.82 124.257 37.14 124.257 37.5C124.257 37.94 124.344 38.3333 124.517 38.68C124.704 39.0267 124.937 39.3133 125.217 39.54C125.497 39.7667 125.804 39.94 126.137 40.06C126.484 40.18 126.811 40.24 127.117 40.24C127.451 40.24 127.751 40.18 128.017 40.06C128.297 39.9267 128.537 39.7533 128.737 39.54C128.937 39.3133 129.091 39.0533 129.197 38.76C129.304 38.4667 129.357 38.16 129.357 37.84C129.357 37.44 129.277 37.0733 129.117 36.74C128.957 36.4067 128.744 36.1267 128.477 35.9C128.224 35.66 127.931 35.48 127.597 35.36C127.264 35.2267 126.931 35.16 126.597 35.16ZM140.96 41.7C140.96 41.8067 140.973 41.9267 141 42.06C141.026 42.18 141.066 42.2933 141.12 42.4C141.186 42.5067 141.253 42.6 141.32 42.68C141.4 42.76 141.493 42.8 141.6 42.8V43H139.02V42.8C139.113 42.8 139.2 42.76 139.28 42.68C139.36 42.6 139.426 42.5067 139.48 42.4C139.546 42.2933 139.593 42.18 139.62 42.06C139.646 41.9267 139.66 41.8067 139.66 41.7V37.98C139.66 37.5 139.593 37.08 139.46 36.72C139.326 36.36 139.146 36.06 138.92 35.82C138.693 35.58 138.433 35.4067 138.14 35.3C137.86 35.18 137.573 35.12 137.28 35.12C136.986 35.12 136.693 35.18 136.4 35.3C136.12 35.42 135.866 35.58 135.64 35.78C135.426 35.9667 135.246 36.1933 135.1 36.46C134.966 36.7133 134.9 36.98 134.9 37.26V41.7C134.9 41.8067 134.913 41.9267 134.94 42.06C134.966 42.18 135.006 42.2933 135.06 42.4C135.126 42.5067 135.193 42.6 135.26 42.68C135.34 42.76 135.433 42.8 135.54 42.8V43H132.94V42.8C133.033 42.8 133.12 42.76 133.2 42.68C133.28 42.6 133.346 42.5067 133.4 42.4C133.466 42.2933 133.513 42.18 133.54 42.06C133.566 41.9267 133.58 41.8067 133.58 41.7V36.18C133.58 35.9533 133.546 35.74 133.48 35.54C133.413 35.3267 133.22 35.2133 132.9 35.2V35.02L134.9 34.38V35.48C134.993 35.3733 135.113 35.26 135.26 35.14C135.406 35.0067 135.58 34.8867 135.78 34.78C135.993 34.66 136.233 34.5667 136.5 34.5C136.78 34.42 137.106 34.38 137.48 34.38C138.106 34.38 138.64 34.4867 139.08 34.7C139.52 34.9133 139.88 35.1933 140.16 35.54C140.44 35.8733 140.64 36.2467 140.76 36.66C140.893 37.06 140.96 37.4533 140.96 37.84V41.7ZM144.664 38.96C144.717 39.4267 144.831 39.8733 145.004 40.3C145.177 40.7133 145.404 41.08 145.684 41.4C145.977 41.72 146.331 41.98 146.744 42.18C147.157 42.3667 147.637 42.46 148.184 42.46C148.477 42.46 148.784 42.42 149.104 42.34C149.437 42.2467 149.744 42.12 150.024 41.96C150.304 41.8 150.551 41.6067 150.764 41.38C150.991 41.14 151.144 40.8733 151.224 40.58H151.404V42.08C151.324 42.08 151.231 42.1067 151.124 42.16C151.031 42.2133 150.917 42.28 150.784 42.36C150.517 42.52 150.157 42.6933 149.704 42.88C149.251 43.0533 148.651 43.14 147.904 43.14C147.304 43.14 146.731 43.0533 146.184 42.88C145.651 42.7067 145.177 42.44 144.764 42.08C144.351 41.72 144.017 41.26 143.764 40.7C143.524 40.14 143.404 39.4733 143.404 38.7C143.404 38.2067 143.484 37.7067 143.644 37.2C143.817 36.6933 144.071 36.24 144.404 35.84C144.751 35.4267 145.191 35.0933 145.724 34.84C146.257 34.5867 146.897 34.46 147.644 34.46C148.311 34.46 148.891 34.5733 149.384 34.8C149.891 35.0267 150.304 35.34 150.624 35.74C150.957 36.14 151.204 36.6133 151.364 37.16C151.524 37.7067 151.604 38.3067 151.604 38.96H144.664ZM147.564 35.12C147.097 35.12 146.691 35.2133 146.344 35.4C146.011 35.5867 145.724 35.8267 145.484 36.12C145.244 36.4133 145.057 36.7467 144.924 37.12C144.791 37.4933 144.704 37.8667 144.664 38.24H150.364C150.351 37.8533 150.277 37.4733 150.144 37.1C150.024 36.7267 149.851 36.3933 149.624 36.1C149.397 35.8067 149.111 35.5733 148.764 35.4C148.417 35.2133 148.017 35.12 147.564 35.12ZM158.151 36.06C157.991 35.7933 157.824 35.6267 157.651 35.56C157.478 35.4933 157.278 35.46 157.051 35.46C156.904 35.46 156.744 35.4933 156.571 35.56C156.411 35.6267 156.251 35.7133 156.091 35.82C155.931 35.9267 155.771 36.0467 155.611 36.18C155.464 36.3 155.338 36.4133 155.231 36.52V41.72C155.231 41.8267 155.244 41.94 155.271 42.06C155.298 42.18 155.338 42.3 155.391 42.42C155.458 42.5267 155.524 42.62 155.591 42.7C155.671 42.7667 155.764 42.8 155.871 42.8V43H153.271V42.8C153.364 42.8 153.451 42.7667 153.531 42.7C153.611 42.62 153.678 42.5267 153.731 42.42C153.798 42.3 153.844 42.18 153.871 42.06C153.898 41.94 153.911 41.8267 153.911 41.72V36.14C153.911 35.9533 153.851 35.7667 153.731 35.58C153.611 35.3933 153.438 35.2733 153.211 35.22V35.06L155.231 34.46V35.66C155.351 35.5133 155.478 35.3733 155.611 35.24C155.744 35.0933 155.891 34.9667 156.051 34.86C156.224 34.74 156.411 34.6467 156.611 34.58C156.811 34.5 157.044 34.46 157.311 34.46C157.498 34.46 157.738 34.5 158.031 34.58C158.324 34.66 158.564 34.7467 158.751 34.84L158.151 36.06Z" fill="#014866"/>
</svg>
